<svg id="Layer_1" data-name="Layer 1" xmlns="http://www.w3.org/2000/svg" viewBox="0 0 100 100"><defs><style>.cls-1{fill:#fff;}.cls-2{fill:#231f20;}.cls-3{fill:none;stroke:#231f20;stroke-miterlimit:10;stroke-width:3px;}</style></defs><circle class="cls-1" cx="50" cy="50" r="50"/><g id="I"><polygon class="cls-2" points="52.84 76.72 54.85 66.64 33.36 66.64 33.36 60.57 54.52 60.57 54.52 39.43 33.36 39.43 33.36 33.36 54.85 33.36 52.84 23.28 78.06 23.28 82.32 39.43 62.61 39.43 62.61 60.57 82.32 60.57 78.07 76.72 52.84 76.72"/><path class="cls-2" d="M76.91,24.78l3.46,13.15H61.11V62.07H80.38L76.92,75.22H54.67L56,68.73l.71-3.59H34.86V62.07H56V37.93H34.86V34.86H56.68L56,31.27l-1.3-6.49H76.91m2.31-3H51l2,10.08H31.86v9.07H53V59.07H31.86v9.07H53L51,78.22H79.23l5-19.15H64.11V40.93H84.27l-5-19.15Z"/></g><polygon id="E" class="cls-3" points="51.01 21.78 19.77 21.78 19.77 78.22 51.01 78.22 53.02 68.14 31.86 68.14 31.86 59.07 53.02 59.07 53.02 40.93 31.86 40.93 31.86 31.86 53.02 31.86 51.01 21.78"/></svg>